<mxfile host="Electron" agent="Mozilla/5.0 (Windows NT 10.0; Win64; x64) AppleWebKit/537.36 (KHTML, like Gecko) draw.io/24.7.17 Chrome/128.0.6613.36 Electron/32.0.1 Safari/537.36" version="24.7.17">
  <diagram name="Trang-1" id="4dTqWTEgZJZNS5YWOtt4">
    <mxGraphModel dx="2284" dy="844" grid="1" gridSize="10" guides="1" tooltips="1" connect="1" arrows="1" fold="1" page="1" pageScale="1" pageWidth="850" pageHeight="1100" math="0" shadow="0">
      <root>
        <mxCell id="0" />
        <mxCell id="1" parent="0" />
        <mxCell id="CLhvpsB9oqZEEe6vMv_s-14" style="edgeStyle=orthogonalEdgeStyle;rounded=0;orthogonalLoop=1;jettySize=auto;html=1;exitX=0.5;exitY=1;exitDx=0;exitDy=0;entryX=0.5;entryY=0;entryDx=0;entryDy=0;" edge="1" parent="1" source="Hqu9tPA_06MCZhKUZTEo-1" target="CLhvpsB9oqZEEe6vMv_s-2">
          <mxGeometry relative="1" as="geometry" />
        </mxCell>
        <mxCell id="Hqu9tPA_06MCZhKUZTEo-1" value="Bắt đầu kiểm tra" style="rounded=1;whiteSpace=wrap;html=1;" parent="1" vertex="1">
          <mxGeometry x="365" y="20" width="120" height="60" as="geometry" />
        </mxCell>
        <mxCell id="Hqu9tPA_06MCZhKUZTEo-7" style="edgeStyle=orthogonalEdgeStyle;rounded=0;orthogonalLoop=1;jettySize=auto;html=1;exitX=0.5;exitY=1;exitDx=0;exitDy=0;entryX=0.5;entryY=0;entryDx=0;entryDy=0;" parent="1" source="Hqu9tPA_06MCZhKUZTEo-2" target="Hqu9tPA_06MCZhKUZTEo-6" edge="1">
          <mxGeometry relative="1" as="geometry" />
        </mxCell>
        <mxCell id="Hqu9tPA_06MCZhKUZTEo-11" style="edgeStyle=orthogonalEdgeStyle;rounded=0;orthogonalLoop=1;jettySize=auto;html=1;exitX=0.5;exitY=1;exitDx=0;exitDy=0;entryX=0.5;entryY=0;entryDx=0;entryDy=0;" parent="1" source="Hqu9tPA_06MCZhKUZTEo-2" target="Hqu9tPA_06MCZhKUZTEo-14" edge="1">
          <mxGeometry relative="1" as="geometry">
            <mxPoint x="248" y="317" as="targetPoint" />
          </mxGeometry>
        </mxCell>
        <mxCell id="Hqu9tPA_06MCZhKUZTEo-2" value="Lọc ra và đếm các bậc lẻ" style="rounded=0;whiteSpace=wrap;html=1;" parent="1" vertex="1">
          <mxGeometry x="363" y="220" width="120" height="60" as="geometry" />
        </mxCell>
        <mxCell id="Hqu9tPA_06MCZhKUZTEo-9" style="edgeStyle=orthogonalEdgeStyle;rounded=0;orthogonalLoop=1;jettySize=auto;html=1;exitX=0.5;exitY=1;exitDx=0;exitDy=0;entryX=0.5;entryY=0;entryDx=0;entryDy=0;" parent="1" source="Hqu9tPA_06MCZhKUZTEo-6" target="Hqu9tPA_06MCZhKUZTEo-8" edge="1">
          <mxGeometry relative="1" as="geometry" />
        </mxCell>
        <mxCell id="Hqu9tPA_06MCZhKUZTEo-16" style="edgeStyle=orthogonalEdgeStyle;rounded=0;orthogonalLoop=1;jettySize=auto;html=1;exitX=0;exitY=0.5;exitDx=0;exitDy=0;entryX=0.75;entryY=0;entryDx=0;entryDy=0;" parent="1" source="Hqu9tPA_06MCZhKUZTEo-6" target="Hqu9tPA_06MCZhKUZTEo-15" edge="1">
          <mxGeometry relative="1" as="geometry" />
        </mxCell>
        <mxCell id="Hqu9tPA_06MCZhKUZTEo-6" value="Nếu số lượng đỉnh&lt;div&gt;&amp;nbsp;có bậc lẻ là 0&lt;/div&gt;" style="rhombus;whiteSpace=wrap;html=1;" parent="1" vertex="1">
          <mxGeometry x="483" y="337.5" width="135" height="140" as="geometry" />
        </mxCell>
        <mxCell id="Hqu9tPA_06MCZhKUZTEo-8" value="Là chu trình Euler" style="shape=parallelogram;perimeter=parallelogramPerimeter;whiteSpace=wrap;html=1;fixedSize=1;" parent="1" vertex="1">
          <mxGeometry x="618" y="517" width="120" height="60" as="geometry" />
        </mxCell>
        <mxCell id="Hqu9tPA_06MCZhKUZTEo-13" style="edgeStyle=orthogonalEdgeStyle;rounded=0;orthogonalLoop=1;jettySize=auto;html=1;entryX=0.5;entryY=0;entryDx=0;entryDy=0;exitX=0.5;exitY=1;exitDx=0;exitDy=0;" parent="1" source="Hqu9tPA_06MCZhKUZTEo-14" target="Hqu9tPA_06MCZhKUZTEo-12" edge="1">
          <mxGeometry relative="1" as="geometry">
            <mxPoint x="378" y="487" as="sourcePoint" />
          </mxGeometry>
        </mxCell>
        <mxCell id="Hqu9tPA_06MCZhKUZTEo-12" value="Là nữa chu trình Euler" style="shape=parallelogram;perimeter=parallelogramPerimeter;whiteSpace=wrap;html=1;fixedSize=1;" parent="1" vertex="1">
          <mxGeometry x="113" y="517" width="120" height="60" as="geometry" />
        </mxCell>
        <mxCell id="Hqu9tPA_06MCZhKUZTEo-18" style="edgeStyle=orthogonalEdgeStyle;rounded=0;orthogonalLoop=1;jettySize=auto;html=1;exitX=1;exitY=0.5;exitDx=0;exitDy=0;entryX=0.25;entryY=0;entryDx=0;entryDy=0;" parent="1" source="Hqu9tPA_06MCZhKUZTEo-14" target="Hqu9tPA_06MCZhKUZTEo-15" edge="1">
          <mxGeometry relative="1" as="geometry">
            <mxPoint x="418" y="447" as="targetPoint" />
          </mxGeometry>
        </mxCell>
        <mxCell id="Hqu9tPA_06MCZhKUZTEo-14" value="Nếu số lượng đỉnh&lt;div&gt;&amp;nbsp;có bậc lẻ là 2&lt;/div&gt;" style="rhombus;whiteSpace=wrap;html=1;" parent="1" vertex="1">
          <mxGeometry x="233" y="337" width="135" height="140" as="geometry" />
        </mxCell>
        <mxCell id="Hqu9tPA_06MCZhKUZTEo-15" value="Không là Euler" style="shape=parallelogram;perimeter=parallelogramPerimeter;whiteSpace=wrap;html=1;fixedSize=1;" parent="1" vertex="1">
          <mxGeometry x="363" y="517" width="120" height="60" as="geometry" />
        </mxCell>
        <mxCell id="Hqu9tPA_06MCZhKUZTEo-19" value="Đúng" style="text;html=1;align=center;verticalAlign=middle;resizable=0;points=[];autosize=1;strokeColor=none;fillColor=none;" parent="1" vertex="1">
          <mxGeometry x="248" y="497" width="50" height="30" as="geometry" />
        </mxCell>
        <mxCell id="Hqu9tPA_06MCZhKUZTEo-20" value="Đúng" style="text;html=1;align=center;verticalAlign=middle;resizable=0;points=[];autosize=1;strokeColor=none;fillColor=none;" parent="1" vertex="1">
          <mxGeometry x="548" y="497" width="50" height="30" as="geometry" />
        </mxCell>
        <mxCell id="Hqu9tPA_06MCZhKUZTEo-21" value="Sai" style="text;html=1;align=center;verticalAlign=middle;resizable=0;points=[];autosize=1;strokeColor=none;fillColor=none;" parent="1" vertex="1">
          <mxGeometry x="368" y="377" width="40" height="30" as="geometry" />
        </mxCell>
        <mxCell id="Hqu9tPA_06MCZhKUZTEo-22" value="Sai" style="text;html=1;align=center;verticalAlign=middle;resizable=0;points=[];autosize=1;strokeColor=none;fillColor=none;" parent="1" vertex="1">
          <mxGeometry x="443" y="377" width="40" height="30" as="geometry" />
        </mxCell>
        <mxCell id="CLhvpsB9oqZEEe6vMv_s-12" style="edgeStyle=orthogonalEdgeStyle;rounded=0;orthogonalLoop=1;jettySize=auto;html=1;exitX=0;exitY=0.5;exitDx=0;exitDy=0;entryX=1;entryY=0.5;entryDx=0;entryDy=0;" edge="1" parent="1" source="CLhvpsB9oqZEEe6vMv_s-2" target="CLhvpsB9oqZEEe6vMv_s-4">
          <mxGeometry relative="1" as="geometry" />
        </mxCell>
        <mxCell id="CLhvpsB9oqZEEe6vMv_s-2" value="Ta có một mảng rỗng tên bậc đỉnh" style="rounded=0;whiteSpace=wrap;html=1;" vertex="1" parent="1">
          <mxGeometry x="365" y="110" width="120" height="60" as="geometry" />
        </mxCell>
        <mxCell id="CLhvpsB9oqZEEe6vMv_s-13" style="edgeStyle=orthogonalEdgeStyle;rounded=0;orthogonalLoop=1;jettySize=auto;html=1;exitX=0;exitY=0.5;exitDx=0;exitDy=0;entryX=1;entryY=0.5;entryDx=0;entryDy=0;" edge="1" parent="1" source="CLhvpsB9oqZEEe6vMv_s-4" target="CLhvpsB9oqZEEe6vMv_s-6">
          <mxGeometry relative="1" as="geometry" />
        </mxCell>
        <mxCell id="CLhvpsB9oqZEEe6vMv_s-4" value="Chạy vòng lặp qua tất cả phần tử trong mảng các đỉnh" style="rounded=0;whiteSpace=wrap;html=1;" vertex="1" parent="1">
          <mxGeometry x="195" y="110" width="120" height="60" as="geometry" />
        </mxCell>
        <mxCell id="CLhvpsB9oqZEEe6vMv_s-5" style="edgeStyle=orthogonalEdgeStyle;rounded=0;orthogonalLoop=1;jettySize=auto;html=1;exitX=0.5;exitY=1;exitDx=0;exitDy=0;entryX=0.5;entryY=0;entryDx=0;entryDy=0;" edge="1" parent="1" source="CLhvpsB9oqZEEe6vMv_s-6" target="CLhvpsB9oqZEEe6vMv_s-8">
          <mxGeometry relative="1" as="geometry" />
        </mxCell>
        <mxCell id="CLhvpsB9oqZEEe6vMv_s-6" value="Gắn cho mỗi đỉnh đều bậc 0" style="rounded=0;whiteSpace=wrap;html=1;" vertex="1" parent="1">
          <mxGeometry x="5" y="110" width="120" height="60" as="geometry" />
        </mxCell>
        <mxCell id="CLhvpsB9oqZEEe6vMv_s-7" style="edgeStyle=orthogonalEdgeStyle;rounded=0;orthogonalLoop=1;jettySize=auto;html=1;exitX=0.5;exitY=1;exitDx=0;exitDy=0;entryX=0.5;entryY=0;entryDx=0;entryDy=0;" edge="1" parent="1" source="CLhvpsB9oqZEEe6vMv_s-8" target="CLhvpsB9oqZEEe6vMv_s-10">
          <mxGeometry relative="1" as="geometry" />
        </mxCell>
        <mxCell id="CLhvpsB9oqZEEe6vMv_s-8" value="Chạy vòng lặp qua tất cả phần tử trong mảng các cạnh" style="rounded=0;whiteSpace=wrap;html=1;" vertex="1" parent="1">
          <mxGeometry x="5" y="220" width="120" height="60" as="geometry" />
        </mxCell>
        <mxCell id="CLhvpsB9oqZEEe6vMv_s-15" style="edgeStyle=orthogonalEdgeStyle;rounded=0;orthogonalLoop=1;jettySize=auto;html=1;exitX=1;exitY=0.5;exitDx=0;exitDy=0;entryX=0;entryY=0.5;entryDx=0;entryDy=0;" edge="1" parent="1" source="CLhvpsB9oqZEEe6vMv_s-10" target="Hqu9tPA_06MCZhKUZTEo-2">
          <mxGeometry relative="1" as="geometry" />
        </mxCell>
        <mxCell id="CLhvpsB9oqZEEe6vMv_s-10" value="Với mỗi đỉnh có cạnh thì 2 đỉnh đó sẽ cộng thêm một vô mảng bậc đỉnh.&lt;br&gt;A: 0; B: 1; C: 2" style="rounded=0;whiteSpace=wrap;html=1;" vertex="1" parent="1">
          <mxGeometry x="-10" y="320" width="150" height="75" as="geometry" />
        </mxCell>
      </root>
    </mxGraphModel>
  </diagram>
</mxfile>
